#!OML:ASF H:\Terrain\Patient Classification 1\Walking\liu\liu.ASF
:FULLY-SPECIFIED
:DEGREES
288
root 9.44632 16.7342 10.0737 3.92847 0.427893 2.43455
lowerback -6.19031 -3.11222 -4.75674
upperback 0.694582 -3.8853 2.17521
thorax 4.66907 -2.07974 4.53167
lowerneck -21.4295 -2.58451 -11.4351
upperneck 23.0674 -2.81075 11.1545
head 11.372 -0.888659 5.64312
rclavicle -3.03644e-014 -1.66979e-014
rhumerus -44.7715 3.39579 -82.0897
rradius 21.0587
rwrist -4.00558
rhand -29.2167 -25.6398
rfingers 7.12502
rthumb -2.56102 -55.6042
lclavicle -3.03644e-014 -1.66979e-014
lhumerus -18.6982 -21.3804 90.154
lradius 40.0632
lwrist 9.87561
lhand -15.4414 -28.5477
lfingers 7.12502
lthumb 10.739 1.15781
rfemur -33.9605 3.77799 19.3864
rtibia 32.2153
rfoot -7.17133 -1.90303
rtoes -24.8063
lfemur 23.8149 9.59454 -21.1058
ltibia 2.8625e-014
lfoot -4.9026 0.436416
ltoes -22.1728
289
root 9.42709 16.7358 10.2529 3.72441 0.250374 2.24475
lowerback -5.99424 -3.01241 -4.51629
upperback 0.601234 -3.78021 2.21581
thorax 4.43444 -2.01482 4.46261
lowerneck -20.7275 -2.46907 -11.701
upperneck 22.6827 -2.70615 11.5125
head 11.0861 -0.833872 5.81588
rclavicle 4.37326e-014 1.27222e-014
rhumerus -44.4618 2.29422 -81.3864
rradius 20.3391
rwrist -2.37811
rhand -19.8125 -29.0851
rfingers 7.12502
rthumb 6.52081 -58.9647
lclavicle 4.37326e-014 1.27222e-014
lhumerus -19.6544 -20.9116 90.6156
lradius 39.9973
lwrist 9.35508
lhand -15.3987 -28.6415
lfingers 7.12502
lthumb 10.7802 1.06187
rfemur -33.5225 3.12141 20.0047
rtibia 32.9194
rfoot -7.06242 -0.793215
rtoes -23.578
lfemur 21.0396 10.2033 -20.6444
ltibia 6.8488
lfoot -5.48063 0.443644
ltoes -23.0827
290
root 9.39899 16.7389 10.4185 3.7391 0.346697 2.28141
lowerback -5.98867 -3.05829 -4.70292
upperback 0.548474 -3.83277 2.31681
thorax 4.40246 -2.04524 4.66958
lowerneck -20.645 -2.35487 -11.8177
upperneck 22.7649 -2.51443 11.4963
head 11.0744 -0.761632 5.86167
rclavicle -2.78795e-014 7.15625e-015
rhumerus -43.9051 1.60288 -80.7916
rradius 19.8016
rwrist -1.15125
rhand -14.9979 -30.0377
rfingers 7.12502
rthumb 11.1668 -59.7205
lclavicle -2.78795e-014 7.15625e-015
lhumerus -20.2788 -20.1005 91.0709
lradius 39.7666
lwrist 8.87936
lhand -15.1475 -28.6794
lfingers 7.12502
lthumb 11.0225 1.01116
rfemur -33.265 2.73979 20.2135
rtibia 33.4873
rfoot -7.12988 -0.220705
rtoes -21.8644
lfemur 17.9639 10.5211 -20.3527
ltibia 13.5291
lfoot -5.24608 0.807649
ltoes -22.2132
291
root 9.37095 16.7491 10.5962 3.64925 0.312997 1.88042
lowerback -6.07976 -3.03521 -4.40724
upperback 0.672261 -3.82735 2.48046
thorax 4.57422 -2.04455 4.66763
lowerneck -21.179 -2.32542 -11.5732
upperneck 23.19 -2.41099 11.0898
head 11.3141 -0.734801 5.70628
rclavicle 3.77691e-014 1.27222e-014
rhumerus -43.241 1.36915 -80.5824
rradius 19.4639
rwrist -0.650625
rhand -14.6013 -30.2075
rfingers 7.12502
rthumb 11.5493 -59.8693
lclavicle 3.77691e-014 1.27222e-014
lhumerus -20.8228 -19.8965 91.4386
lradius 39.569
lwrist 8.92892
lhand -15.0649 -28.56
lfingers 7.12502
lthumb 11.1021 1.12632
rfemur -32.7047 2.78792 20.8285
rtibia 33.9004
rfoot -7.59269 0.109001
rtoes -19.4209
lfemur 15.9639 11.4782 -19.3179
ltibia 18.5066
lfoot -4.15282 0.701583
ltoes -20.8487
292
root 9.34624 16.7664 10.7782 3.44746 0.266331 1.07781
lowerback -5.95262 -2.95293 -3.65128
upperback 0.721823 -3.7874 2.6994
thorax 4.51339 -2.0088 4.47978
lowerneck -21.6315 -2.37249 -11.192
upperneck 23.6506 -2.46321 10.6361
head 11.573 -0.775734 5.48436
rclavicle -1.06101e-014 -2.54444e-014
rhumerus -42.7642 0.596129 -80.0021
rradius 19.1019
rwrist 0.513478
rhand -13.537 -30.259
rfingers 7.12502
rthumb 12.5755 -59.8605
lclavicle -1.06101e-014 -2.54444e-014
lhumerus -21.7027 -20.1326 91.9022
lradius 39.3284
lwrist 9.21743
lhand -15.2876 -28.517
lfingers 7.12502
lthumb 10.8874 1.18076
rfemur -31.7751 2.5921 21.96
rtibia 34.1
rfoot -8.15766 0.68163
rtoes -16.9812
lfemur 14.3334 12.4363 -17.8235
ltibia 22.9483
lfoot -3.12775 0.390045
ltoes -19.7972
293
root 9.3095 16.7838 10.9561 3.29169 0.384767 0.466509
lowerback -5.81629 -3.00575 -3.246
upperback 0.664723 -3.89871 2.89216
thorax 4.3747 -2.05346 4.44866
lowerneck -21.6442 -2.3346 -10.899
upperneck 23.9459 -2.45416 10.3666
head 11.6792 -0.781962 5.34398
rclavicle -4.77083e-014 7.95139e-016
rhumerus -42.4431 0.238172 -79.7379
rradius 18.9549
rwrist 1.36362
rhand -12.6238 -31.1195
rfingers 7.12502
rthumb 13.4558 -60.6649
lclavicle -4.77083e-014 7.95139e-016
lhumerus -22.7255 -19.941 92.3156
lradius 38.9991
lwrist 9.45952
lhand -15.4359 -28.4941
lfingers 7.12502
lthumb 10.7443 1.21115
rfemur -30.7958 2.26553 22.9302
rtibia 34.1153
rfoot -8.5964 1.11278
rtoes -16.2741
lfemur 12.7468 13.2163 -16.5331
ltibia 26.9901
lfoot -1.90289 0.15254
ltoes -19.0322
294
root 9.26961 16.8093 11.1268 3.259 0.563427 0.0420143
lowerback -5.80144 -3.10132 -3.09599
upperback 0.627064 -4.04505 3.07336
thorax 4.34551 -2.12429 4.53977
lowerneck -21.6103 -2.25256 -10.7638
upperneck 24.129 -2.39052 10.3316
head 11.7316 -0.748062 5.32515
rclavicle 5.71009e-014 -5.56597e-015
rhumerus -41.97 0.495723 -80.0554
rradius 18.7952
rwrist 0.919441
rhand -13.788 -31.8309
rfingers 7.12502
rthumb 12.3336 -61.4471
lclavicle 5.71009e-014 -5.56597e-015
lhumerus -23.5125 -19.5809 92.6542
lradius 38.625
lwrist 9.57387
lhand -15.205 -28.2513
lfingers 7.12502
lthumb 10.967 1.44228
rfemur -29.9579 2.06947 23.6452
rtibia 34.0508
rfoot -9.13056 1.29714
rtoes -16.6988
lfemur 11.0123 13.67 -15.6066
ltibia 30.7323
lfoot -0.272664 0.622481
ltoes -16.9493
295
root 9.24281 16.8444 11.2973 3.33486 0.754282 -0.201399
lowerback -5.95453 -3.14192 -2.97948
upperback 0.693366 -4.11068 3.1785
thorax 4.50787 -2.15964 4.56783
lowerneck -21.8856 -2.2325 -10.7364
upperneck 24.3317 -2.38347 10.4302
head 11.8636 -0.726243 5.37398
rclavicle -1.65737e-014 -3.18055e-015
rhumerus -41.3322 0.122263 -79.9218
rradius 18.6753
rwrist 1.47146
rhand -15.2697 -31.6498
rfingers 7.12502
rthumb 10.9046 -61.3467
lclavicle -1.65737e-014 -3.18055e-015
lhumerus -24.0144 -19.3073 92.97
lradius 38.2328
lwrist 9.34935
lhand -14.9518 -27.9537
lfingers 7.12502
lthumb 11.2112 1.72677
rfemur -29.243 1.53774 24.143
rtibia 33.9148
rfoot -9.65606 1.74917
rtoes -16.6301
lfemur 9.18042 13.9532 -15.1077
ltibia 34.3398
lfoot 1.51386 1.71554
ltoes -15.1825
296
root 9.22324 16.8733 11.4661 3.41602 0.976182 -0.204075
lowerback -6.04112 -3.17412 -2.9694
upperback 0.692666 -4.15172 3.15189
thorax 4.55754 -2.18001 4.52529
lowerneck -21.9426 -2.19204 -10.6581
upperneck 24.3737 -2.36017 10.4647
head 11.8873 -0.702997 5.38062
rclavicle 2.63638e-014 9.54166e-015
rhumerus -40.8106 -0.993466 -79.2463
rradius 18.6761
rwrist 3.71612
rhand -14.5559 -31.0482
rfingers 7.12502
rthumb 11.5931 -60.7075
lclavicle 2.63638e-014 9.54166e-015
lhumerus -24.6173 -18.6315 93.1915
lradius 37.6939
lwrist 8.43782
lhand -14.6819 -27.964
lfingers 7.12502
lthumb 11.4715 1.70216
rfemur -28.5477 0.783592 24.3728
rtibia 33.6509
rfoot -9.77413 2.20476
rtoes -15.954
lfemur 7.44631 14.2355 -14.9578
ltibia 37.8595
lfoot 3.12461 2.4115
ltoes -13.8963
297
root 9.20097 16.8957 11.6249 3.39177 1.20552 -0.598189
lowerback -5.93768 -3.14579 -2.58172
upperback 0.671572 -4.14637 3.22228
thorax 4.45331 -2.16656 4.38675
lowerneck -21.8358 -2.23182 -10.5392
upperneck 24.2312 -2.43878 10.3854
head 11.8192 -0.737629 5.30775
rclavicle -3.02898e-014 2.78299e-014
rhumerus -40.4127 -1.57152 -79.0276
rradius 18.8597
rwrist 4.84691
rhand -13.4509 -29.9253
rfingers 7.12502
rthumb 12.6585 -59.5217
lclavicle -3.02898e-014 2.78299e-014
lhumerus -25.272 -17.9261 93.3944
lradius 37.1518
lwrist 7.51674
lhand -14.0851 -27.9001
lfingers 7.12502
lthumb 12.0471 1.73314
rfemur -27.695 0.371683 24.9715
rtibia 33.2624
rfoot -9.89144 2.27029
rtoes -15.6694
lfemur 5.77331 14.4398 -14.3671
ltibia 41.3115
lfoot 4.24741 2.87143
ltoes -13.3077
